# xmcd
#
# Track frame offsets: 
#        150
#        17618
#        42106
#        60964
#        82139
#        103625
#        123950
#        141226
#        163294
#        184133
#        206060
#        225994
#
# Disc length: 3273 seconds
#
# Revision: 2
# Processed by: cddbd v1.5.2PL0 Copyright (c) Steve Scherf et al.
# Submitted via: ExactAudioCopy v0.99pb5
#
DISCID=9c0cc70c
DTITLE=Orquesta  Magia  Caribeña - Nuestras Raíces
DYEAR=2006
DGENRE=Salsa
TTITLE0=El Amor Que Buscaba
TTITLE1=Y Si Tengo Que Olvidarla
TTITLE2=Me Quedé Con Ganas (Nueva Versión)
TTITLE3=Te Lo Pido Por Favor
TTITLE4=Hoy He Vuelto A Llorar
TTITLE5=Hay Algo En Ti
TTITLE6=Rosa, La Peligrosa (Merengón)
TTITLE7=No Le Digan
TTITLE8=Pasión Gitana
TTITLE9=Por Ti Me Casaré
TTITLE10=Así Es El Amor
TTITLE11=Y Si Tengo Que Olvidarla (Versión Balada/Pop)
EXTD=YEAR: 2006
EXTT0=
EXTT1=
EXTT2=
EXTT3=
EXTT4=
EXTT5=
EXTT6=
EXTT7=
EXTT8=
EXTT9=
EXTT10=
EXTT11=
PLAYORDER=
